<svg width="499" height="182" viewBox="0 0 499 182" fill="none" xmlns="http://www.w3.org/2000/svg">
<path d="M350.006 137.885H357.017V0H350.006V137.885Z" fill="white"/>
<path d="M94.321 137.883H101.799L152.747 17.995L200.474 130.449L203.63 137.883H211.171L152.747 0L94.321 137.883Z" fill="white"/>
<path d="M490.98 0L488.008 7.01142L440.099 119.889L389.152 0H381.673L436.598 129.703V181.818H443.608V129.703L498.527 0H490.98Z" fill="white"/>
<path d="M241.72 176.83H247.053V175.277H241.72V176.83Z" fill="white"/>
<path d="M94.3201 169.789H98.8297V181.818H100.363V169.789H104.872V168.389H94.3201V169.789Z" fill="white"/>
<path d="M120.915 176.907L123.985 170.058L127.036 176.907H120.915ZM123.294 168.292L117.174 181.818H118.728L120.321 178.269H127.631L129.203 181.818H130.834L124.714 168.292H123.294Z" fill="white"/>
<path d="M146.002 181.818H147.519V168.389H146.002V181.818Z" fill="white"/>
<path d="M165.544 168.389H164.028V181.818H173.104V180.418H165.544V168.389Z" fill="white"/>
<path d="M193.822 180.418C190.753 180.418 188.526 178.027 188.526 175.104C188.526 172.145 190.714 169.791 193.783 169.791C196.854 169.791 199.079 172.181 199.079 175.104C199.079 178.065 196.892 180.418 193.822 180.418ZM193.822 168.389C189.735 168.389 186.953 171.525 186.953 175.104C186.953 178.719 189.697 181.818 193.783 181.818C197.87 181.818 200.652 178.684 200.652 175.104C200.652 171.487 197.908 168.389 193.822 168.389Z" fill="white"/>
<path d="M217.974 175.238V169.789H222.119C224.286 169.789 225.553 170.787 225.553 172.437C225.553 174.201 224.114 175.238 222.099 175.238H217.974V175.238ZM227.089 172.418C227.089 171.325 226.704 170.383 226.051 169.731C225.207 168.887 223.884 168.389 222.233 168.389H216.458V181.818H217.974V176.602H221.812L225.706 181.818H227.568L223.443 176.332C225.553 175.949 227.089 174.643 227.089 172.418Z" fill="white"/>
<path d="M269.361 175.717L264.466 168.389H262.934V181.818H264.409V170.96L269.303 178.136H269.38L274.267 170.94V181.818H275.788V168.389H274.248L269.361 175.717Z" fill="white"/>
<path d="M294.627 176.907L297.7 170.058L300.752 176.907H294.627ZM297.006 168.292L290.887 181.818H292.439L294.037 178.269H301.343L302.92 181.818H304.55L298.43 168.292H297.006Z" fill="white"/>
<path d="M324.31 180.418H321.162V169.789H324.31C327.704 169.789 329.872 172.13 329.872 175.104C329.872 178.115 327.704 180.418 324.31 180.418ZM324.31 168.389H319.648V181.818H324.31C328.531 181.818 331.449 178.883 331.449 175.104C331.449 171.287 328.531 168.389 324.31 168.389V168.389Z" fill="white"/>
<path d="M348.73 175.738H356.062V174.356H348.73V169.771H356.927V168.389H347.216V181.818H357.017V180.437H348.73V175.738Z" fill="white"/>
<path d="M320.264 88.1505C317.769 83.959 314.497 80.454 310.444 77.6319C306.39 74.8128 301.759 72.4867 296.544 70.6573C291.323 68.8282 285.987 67.1526 280.534 65.6272C275.076 64.1043 269.784 62.6195 264.64 61.1681C259.503 59.7208 254.903 57.8914 250.85 55.68C246.8 53.4715 243.569 50.7634 241.154 47.5624C238.737 44.3607 237.532 40.2446 237.532 35.2145C237.686 16.3135 249.838 6.86016 273.992 6.86016C274.98 6.86016 275.955 6.87445 276.91 6.90233V0.0613284C275.647 0.0235101 274.364 0 273.055 0C267.129 0 261.561 0.686553 256.346 2.05844C251.126 3.43008 246.606 5.56657 242.791 8.46114C238.971 11.3591 235.973 14.9787 233.794 19.3233C231.609 23.6675 230.521 28.8125 230.521 34.757C230.521 42.5323 232.66 48.7057 236.948 53.2793C241.231 57.8519 246.566 61.5113 252.954 64.2546C259.343 66.9979 266.276 69.3242 273.755 71.2292C281.234 73.1371 288.167 75.3449 294.556 77.86C300.945 80.3752 306.275 83.6155 310.566 87.5779C314.844 91.5445 316.993 97.0322 316.993 104.042C316.993 107.701 316.056 111.17 314.183 114.446C312.317 117.727 309.469 120.62 305.659 123.136C301.836 125.652 297.044 127.673 291.285 129.194C285.518 130.721 278.816 131.482 271.183 131.482C254.827 131.482 242.593 127.902 234.494 120.735L229.82 125.766C231.689 127.902 234.22 129.692 237.415 131.139C240.607 132.59 244.113 133.847 247.932 134.912C251.748 135.977 255.719 136.741 259.849 137.198C263.98 137.656 268.066 137.885 272.119 137.885C289.098 137.885 301.997 134.838 310.797 128.739C319.597 122.642 324.004 114.332 324.004 103.814C324.004 97.5644 322.753 92.3445 320.264 88.1505V88.1505Z" fill="white"/>
<path d="M146.884 90.8998H158.608V83.892H146.884V90.8998Z" fill="white"/>
<path d="M75.1349 11.9172C64.7725 3.97408 49.2313 0 28.5119 0H0V181.818H7.01119V7.01142H28.5119C65.2803 7.01142 83.6652 19.8268 83.6652 45.4545C83.6652 70.9572 65.4525 83.7675 29.0423 83.8918L29.2976 90.8999C36.9178 90.862 43.83 90.2802 50.033 89.1554C50.0371 89.1544 50.0412 89.1537 50.0463 89.1529C51.0723 88.9665 52.0788 88.7658 53.066 88.5493C53.1004 88.5425 53.1314 88.5333 53.1658 88.5265C54.1237 88.3151 55.0631 88.0919 55.9848 87.8533C56.0444 87.8366 56.1024 87.8189 56.1627 87.8039C57.0527 87.5704 57.9273 87.3253 58.7829 87.0659C58.8844 87.0349 58.9799 87.0005 59.0808 86.9694C59.89 86.72 60.6876 86.4623 61.465 86.1893C61.6119 86.1367 61.7504 86.0802 61.8956 86.0283C62.6192 85.7672 63.3361 85.5011 64.0331 85.2198C64.226 85.1418 64.4091 85.0562 64.5996 84.9764C65.236 84.7103 65.8714 84.4433 66.4842 84.1604C66.73 84.0463 66.9618 83.9229 67.2037 83.806C67.7485 83.5442 68.2949 83.2841 68.8214 83.0079C69.1252 82.8475 69.4122 82.6746 69.7102 82.51C70.157 82.2632 70.6103 82.0205 71.0418 81.7628C71.4345 81.5279 71.8081 81.2768 72.1895 81.0334C72.5075 80.8302 72.8365 80.6346 73.1463 80.4249C73.796 79.9849 74.4249 79.5289 75.0394 79.0613C75.0705 79.038 75.1039 79.0162 75.1349 78.9927C76.4302 77.9994 77.6433 76.9551 78.7766 75.8605C82.1764 72.5781 84.8477 68.8408 86.7912 64.6483C87.1144 63.9492 87.4184 63.2379 87.702 62.5143C89.1183 58.8946 90.0281 54.9591 90.4337 50.7079C90.5949 49.0063 90.6764 47.2553 90.6764 45.4545C90.6764 31.0423 85.495 19.8629 75.1349 11.9172V11.9172Z" fill="white"/>
</svg>
