<svg width="554" height="183" viewBox="0 0 554 183" fill="none" xmlns="http://www.w3.org/2000/svg">
<path d="M405.165 138.292H412.178V0H405.165V138.292Z" fill="white"/>
<path d="M149.365 138.29H156.847L207.817 18.0482L255.567 130.834L258.724 138.29H266.268L207.817 0L149.365 138.29Z" fill="white"/>
<path d="M546.203 0L543.23 7.03214L495.299 120.243L444.328 0H436.846L491.796 130.086V182.355H498.809V130.086L553.753 0H546.203Z" fill="white"/>
<path d="M296.83 177.353H302.166V175.795H296.83V177.353Z" fill="white"/>
<path d="M149.364 170.291H153.876V182.355H155.41V170.291H159.921V168.886H149.364V170.291Z" fill="white"/>
<path d="M175.971 177.43L179.043 170.56L182.095 177.43H175.971ZM178.351 168.79L172.229 182.355H173.783L175.376 178.796H182.69L184.263 182.355H185.895L179.772 168.79H178.351Z" fill="white"/>
<path d="M201.07 182.355H202.587V168.886H201.07V182.355Z" fill="white"/>
<path d="M220.62 168.886H219.104V182.355H228.184V180.951H220.62V168.886Z" fill="white"/>
<path d="M248.911 180.951C245.84 180.951 243.613 178.553 243.613 175.621C243.613 172.653 245.802 170.293 248.872 170.293C251.945 170.293 254.171 172.69 254.171 175.621C254.171 178.591 251.982 180.951 248.911 180.951ZM248.911 168.886C244.822 168.886 242.039 172.031 242.039 175.621C242.039 179.247 244.784 182.355 248.872 182.355C252.961 182.355 255.744 179.211 255.744 175.621C255.744 171.994 252.999 168.886 248.911 168.886Z" fill="white"/>
<path d="M273.074 175.756V170.291H277.221C279.389 170.291 280.656 171.292 280.656 172.946C280.656 174.715 279.216 175.756 277.2 175.756H273.074V175.756ZM282.193 172.928C282.193 171.831 281.808 170.887 281.155 170.233C280.311 169.386 278.986 168.886 277.335 168.886H271.558V182.355H273.074V177.123H276.913L280.809 182.355H282.672L278.545 176.853C280.656 176.468 282.193 175.159 282.193 172.928Z" fill="white"/>
<path d="M324.483 176.236L319.587 168.886H318.054V182.355H319.53V171.465L324.425 178.662H324.502L329.392 171.445V182.355H330.913V168.886H329.373L324.483 176.236Z" fill="white"/>
<path d="M349.76 177.43L352.834 170.56L355.888 177.43H349.76ZM352.141 168.79L346.019 182.355H347.572L349.17 178.796H356.479L358.057 182.355H359.688L353.566 168.79H352.141Z" fill="white"/>
<path d="M379.458 180.951H376.308V170.291H379.458C382.853 170.291 385.022 172.638 385.022 175.621C385.022 178.641 382.853 180.951 379.458 180.951ZM379.458 168.886H374.793V182.355H379.458C383.681 182.355 386.6 179.412 386.6 175.621C386.6 171.793 383.681 168.886 379.458 168.886V168.886Z" fill="white"/>
<path d="M403.888 176.257H411.223V174.871H403.888V170.272H412.089V168.886H402.374V182.355H412.179V180.97H403.888V176.257Z" fill="white"/>
<path d="M375.41 88.411C372.913 84.207 369.641 80.6917 365.585 77.8613C361.53 75.0338 356.897 72.7008 351.679 70.8661C346.456 69.0316 341.117 67.351 335.662 65.8211C330.201 64.2937 324.907 62.8045 319.761 61.3488C314.621 59.8973 310.019 58.0625 305.964 55.8445C301.912 53.6295 298.68 50.9134 296.264 47.703C293.846 44.4918 292.64 40.3635 292.64 35.3185C292.794 16.3617 304.952 6.88043 329.117 6.88043C330.105 6.88043 331.081 6.89476 332.036 6.92273V0.0615096C330.773 0.0235795 329.489 0 328.18 0C322.251 0 316.68 0.688581 311.463 2.06452C306.24 3.44022 301.718 5.58302 297.902 8.48613C294.08 11.3927 291.081 15.023 288.9 19.3803C286.715 23.7374 285.626 28.8976 285.626 34.8597C285.626 42.658 287.766 48.8496 292.056 53.4367C296.34 58.0229 301.678 61.6931 308.069 64.4445C314.461 67.1959 321.397 69.5291 328.88 71.4397C336.362 73.3532 343.298 75.5675 349.69 78.0901C356.082 80.6127 361.414 83.8625 365.707 87.8367C369.987 91.8149 372.137 97.3189 372.137 104.349C372.137 108.019 371.2 111.498 369.326 114.785C367.459 118.075 364.61 120.976 360.798 123.5C356.974 126.023 352.18 128.051 346.418 129.576C340.648 131.108 333.943 131.871 326.306 131.871C309.943 131.871 297.704 128.28 289.601 121.092L284.924 126.138C286.795 128.28 289.327 130.075 292.523 131.526C295.717 132.982 299.224 134.242 303.045 135.311C306.863 136.378 310.835 137.145 314.967 137.603C319.1 138.063 323.188 138.292 327.243 138.292C344.23 138.292 357.134 135.236 365.939 129.119C374.743 123.005 379.151 114.67 379.151 104.121C379.151 97.8526 377.9 92.6173 375.41 88.411V88.411Z" fill="white"/>
<path d="M201.952 91.1683H213.682V84.1398H201.952V91.1683Z" fill="white"/>
<path d="M130.169 11.9524C119.802 3.98582 104.254 0 83.5253 0H55.0005V182.355H62.0149V7.03214H83.5253C120.31 7.03214 138.704 19.8853 138.704 45.5888C138.704 71.1669 120.483 84.015 84.056 84.1397L84.3114 91.1684C91.935 91.1305 98.8504 90.547 105.056 89.4188C105.06 89.4178 105.064 89.4171 105.069 89.4163C106.096 89.2294 107.103 89.0281 108.091 88.8109C108.125 88.8041 108.156 88.7949 108.19 88.7881C109.149 88.576 110.089 88.3521 111.011 88.1129C111.07 88.0961 111.128 88.0783 111.189 88.0633C112.079 87.8291 112.954 87.5833 113.81 87.3231C113.912 87.292 114.007 87.2575 114.108 87.2264C114.918 86.9762 115.716 86.7177 116.493 86.4439C116.64 86.3912 116.779 86.3345 116.924 86.2825C117.648 86.0206 118.365 85.7537 119.063 85.4716C119.256 85.3933 119.439 85.3075 119.629 85.2275C120.266 84.9605 120.902 84.6928 121.515 84.4091C121.761 84.2946 121.993 84.1708 122.235 84.0536C122.78 83.791 123.326 83.5301 123.853 83.2532C124.157 83.0922 124.444 82.9189 124.742 82.7538C125.189 82.5063 125.643 82.2629 126.075 82.0044C126.467 81.7688 126.841 81.5169 127.223 81.2728C127.541 81.069 127.87 80.8728 128.18 80.6625C128.83 80.2212 129.459 79.7639 130.074 79.2949C130.105 79.2715 130.138 79.2496 130.169 79.226C131.465 78.2299 132.679 77.1824 133.813 76.0846C137.214 72.7925 139.887 69.0442 141.831 64.8393C142.154 64.1381 142.459 63.4247 142.742 62.699C144.159 59.0686 145.069 55.1214 145.475 50.8577C145.636 49.1511 145.718 47.3949 145.718 45.5888C145.718 31.1341 140.534 19.9216 130.169 11.9524V11.9524Z" fill="white"/>
</svg>
